<svg width="24" height="24" viewBox="0 0 24 24" fill="none" xmlns="http://www.w3.org/2000/svg">
<path opacity="0.2" d="M5.26867 9.75001C5.26742 8.86087 5.4421 7.98026 5.78263 7.15891C6.12317 6.33757 6.62284 5.59171 7.25287 4.96429C7.88289 4.33688 8.63083 3.84031 9.45358 3.5032C10.2763 3.16608 11.1577 2.99507 12.0468 3.00001C15.7593 3.02814 18.7312 6.11251 18.7312 9.83439V10.5C18.7312 13.8563 19.4343 15.8063 20.053 16.875C20.1188 16.9888 20.1534 17.1179 20.1535 17.2494C20.1536 17.3808 20.1192 17.5099 20.0537 17.6239C19.9882 17.7378 19.8939 17.8325 19.7802 17.8985C19.6666 17.9646 19.5376 17.9995 19.4062 18H4.59367C4.46224 17.9995 4.33324 17.9646 4.2196 17.8985C4.10595 17.8325 4.01165 17.7378 3.94613 17.6239C3.88062 17.5099 3.8462 17.3808 3.84631 17.2494C3.84643 17.1179 3.88108 16.9888 3.9468 16.875C4.56555 15.8063 5.26867 13.8563 5.26867 10.5V9.75001Z" fill="#115DA9"/>
<path d="M5.26867 9.75001C5.26742 8.86087 5.4421 7.98026 5.78263 7.15891C6.12317 6.33757 6.62284 5.5917 7.25287 4.96429C7.88289 4.33688 8.63083 3.84031 9.45358 3.5032C10.2763 3.16608 11.1577 2.99507 12.0468 3.00001C15.7593 3.02814 18.7312 6.11251 18.7312 9.83439V10.5C18.7312 13.8563 19.4343 15.8063 20.053 16.875C20.1188 16.9888 20.1534 17.1179 20.1535 17.2494C20.1536 17.3808 20.1192 17.5099 20.0537 17.6239C19.9882 17.7378 19.8939 17.8325 19.7802 17.8985C19.6666 17.9646 19.5376 17.9996 19.4062 18H4.59367C4.46224 17.9996 4.33324 17.9646 4.2196 17.8985C4.10595 17.8325 4.01165 17.7378 3.94613 17.6239C3.88062 17.5099 3.8462 17.3808 3.84631 17.2494C3.84643 17.1179 3.88108 16.9888 3.9468 16.875C4.56555 15.8063 5.26867 13.8563 5.26867 10.5V9.75001Z" stroke="#090A0A" stroke-width="1.5" stroke-linecap="round" stroke-linejoin="round"/>
<path d="M9 18V18.75C9 19.5456 9.31607 20.3087 9.87868 20.8713C10.4413 21.4339 11.2044 21.75 12 21.75C12.7956 21.75 13.5587 21.4339 14.1213 20.8713C14.6839 20.3087 15 19.5456 15 18.75V18" stroke="#090A0A" stroke-width="1.5" stroke-linecap="round" stroke-linejoin="round"/>
</svg>
