<svg width="45" height="52" viewBox="0 0 45 52" fill="none" xmlns="http://www.w3.org/2000/svg">
<path fill-rule="evenodd" clip-rule="evenodd" d="M7.63851 0.224385C7.19999 0.401392 7.1888 3.55685 7.62518 3.99324C7.99652 4.36458 9.40244 4.41176 9.94093 4.07081C10.4282 3.76212 10.65 1.35174 10.2584 0.619984C9.95932 0.0612409 8.56486 -0.149354 7.63851 0.224385ZM16.4222 0.367803C15.9442 0.845774 16.0154 3.38838 16.5211 3.89434C17.3054 4.67834 19.3012 4.24488 19.3012 3.29028C19.3012 2.87148 19.4873 2.83843 20.9758 2.99251C24.2603 3.33266 24.7705 4.1044 24.7556 8.71163C24.7415 13.0163 23.7224 17.1176 20.8948 24.2471C20.0442 26.392 20.0338 26.4648 20.5269 26.8372C21.3096 27.4287 21.4874 27.2368 22.5188 24.6857C25.2408 17.953 26.2381 14.0269 26.4231 9.31703C26.5633 5.74491 26.5497 5.62202 25.8499 4.19184C24.7977 2.04137 23.9151 1.51408 21.3677 1.51408C19.6803 1.51408 19.3023 1.43837 19.3017 1.10089C19.3004 0.13295 17.1934 -0.403401 16.4222 0.367803ZM2.85587 1.77159C-1.37123 3.6099 -0.857801 13.2983 4.07732 24.8195C5.10924 27.2283 5.3025 27.425 6.06758 26.8463C6.54208 26.4872 6.51276 26.3467 5.35689 23.4562C2.83374 17.1469 1.53445 11.4009 1.76211 7.56109C1.95991 4.22916 3.03261 2.98025 5.6973 2.98025C6.71376 2.98025 6.77214 2.9368 6.77214 2.18052C6.77214 1.38346 6.76707 1.38079 5.23933 1.39119C4.39615 1.39705 3.32371 1.56819 2.85587 1.77159ZM36.2288 13.6166C31.3971 15.8585 31.4765 22.4507 36.3621 24.6609C37.4801 25.1666 37.5169 25.2143 36.9027 25.3649C36.4183 25.4835 36.1923 25.7704 36.048 26.4491C35.3008 29.9695 33.0659 39.744 32.6063 41.5005C30.6923 48.8185 25.0259 52.2451 19.3948 49.49C16.0604 47.8588 14.4637 45.2976 14.2882 41.3005L14.1742 38.7014H13.2723H12.3702V40.2878C12.3702 46.8901 16.6117 51.6893 22.7017 51.9772C26.0253 52.1345 27.7677 51.5043 30.1367 49.288C32.5077 47.0703 33.6371 44.7178 34.8567 39.4577C37.3092 28.8802 37.9949 25.6421 37.8357 25.3846C37.7267 25.2082 38.0636 25.1061 38.7541 25.1061C41.897 25.1061 44.45 22.4176 44.45 19.1081C44.45 14.769 40.0619 11.838 36.2288 13.6166ZM39.6943 14.736C43.1984 15.6887 44.1704 20.0075 41.4553 22.5613C40.297 23.6505 37.6747 23.867 36.256 22.9902C32.8374 20.8776 33.6603 15.625 37.5561 14.6907C37.9991 14.5846 38.4214 14.4859 38.4947 14.4718C38.568 14.4577 39.1078 14.5766 39.6943 14.736ZM36.9291 17.1344C35.6442 18.3316 35.6149 19.597 36.8416 20.9075C38.3438 22.5117 41.1604 21.3383 41.1604 19.1081C41.1604 17.012 38.4286 15.7375 36.9291 17.1344ZM5.83939 27.5719L5.14336 28.1717L5.96441 29.4099C6.88037 30.7913 9.13267 32.4745 10.4005 32.7248C11.2181 32.8863 11.2325 32.917 11.394 34.8281C11.6387 37.7239 11.8699 38.1683 13.1308 38.1683C14.5303 38.1683 14.7873 37.7703 15.1109 35.1019C15.3066 33.4883 15.491 32.8368 15.7528 32.8368C16.9644 32.8368 19.7419 30.7231 20.9902 28.8512C21.4018 28.2338 21.3941 28.1637 20.8503 27.5849C20.2865 26.9846 19.0346 26.7319 19.0346 27.2181C19.0346 27.3536 18.7097 27.8505 18.3125 28.3226C16.1068 30.9438 10.5159 30.8473 8.13887 28.1469C6.95074 26.7969 6.78627 26.7559 5.83939 27.5719Z" fill="#528DC0"/>
<path d="M9.09981 19.4998C6.17481 14.6248 10.0748 9.74984 18.3623 10.2373C18.8498 18.5248 13.9748 22.4248 9.09981 19.4998Z" fill="#34A853" stroke="#77BC34" stroke-width="0.8" stroke-linecap="round" stroke-linejoin="round"/>
<path d="M14.9498 13.6499L7.63733 20.9624" stroke="#77BC34" stroke-width="0.8" stroke-linecap="round" stroke-linejoin="round"/>
</svg>
