<svg width="51" height="39" viewBox="0 0 51 39" fill="none" xmlns="http://www.w3.org/2000/svg">
    <defs>
        <linearGradient id="paint0_linear_68_1716" x1="5.14747" y1="17.2521" x2="5.14747"
            y2="35.5105" gradientUnits="userSpaceOnUse">
            <stop stop-color="#115DA9" />
            <stop offset="0.638542" stop-color="#2898FF" />
        </linearGradient>
    </defs>
    <circle cx="31" cy="8" r="7.25" fill="#FED947" stroke="#3C3B41" stroke-width="1.5" />
    <path
        d="M36.3952 3.14802C35.0283 1.77133 33.1634 1 31.2205 1C30.8104 1 30.4003 1.03905 30 1.09764C33.5247 1.69322 36.1023 4.74927 36.1023 8.32279C36.1023 11.8963 33.5247 14.9426 30 15.5382C30.4003 15.6065 30.8104 15.6358 31.2205 15.6456C34.1789 15.6456 36.8444 13.8588 37.977 11.125C39.1096 8.38137 38.4847 5.23745 36.3952 3.14802Z"
        fill="#F8BE32" />
    <circle cx="31" cy="8" r="7.25" stroke="#3C3B41" stroke-width="1.5" />
    <path d="M28.375 5.75H34.375" stroke="#3C3B41" stroke-linecap="round" stroke-linejoin="round" />
    <path d="M28.375 3.875H34.375" stroke="#3C3B41" stroke-linecap="round"
        stroke-linejoin="round" />
    <path
        d="M30.0625 3.875C30.709 3.875 31.329 4.13181 31.7861 4.58893C32.2432 5.04605 32.5 5.66603 32.5 6.3125C32.5 6.95897 32.2432 7.57895 31.7861 8.03607C31.329 8.49319 30.709 8.75 30.0625 8.75H28.375L32.5 12.5"
        stroke="#3C3B41" stroke-linecap="round" stroke-linejoin="round" />
    <path fill-rule="evenodd" clip-rule="evenodd"
        d="M12.0848 26.2401L12.1357 33.8429L16.1791 35.9514C21.0695 38.5014 22.0331 38.8529 24.4655 38.9732C27.2249 39.1098 28.2159 38.8022 33.4385 36.1892C40.9673 32.4227 48.7736 27.4776 49.652 25.9186C50.7751 23.9254 49.759 21.5561 47.5227 20.954C46.2329 20.6066 45.4636 20.8544 41.1827 22.9967L37.1424 25.0188L36.7022 26.1032C35.7142 28.5371 33.6368 29.6029 29.4429 29.827C26.7364 29.9719 26.2131 29.8313 26.2131 28.9602C26.2131 28.0537 26.4835 27.9573 29.032 27.9573C31.7081 27.9573 32.912 27.6842 34.1321 26.8003C35.8977 25.5213 35.814 23.7679 33.9411 22.7934C33.5589 22.5945 32.6287 22.5206 30.5143 22.5206H27.6119L26.374 21.7685C21.9799 19.0991 20.4114 18.6371 15.7399 18.6371H12.0341L12.0848 26.2401Z"
        fill="#E8B972" />
    <path fill-rule="evenodd" clip-rule="evenodd"
        d="M0 26.3812V35.5105H5.14747H10.2949L10.2445 26.433L10.194 17.3556L5.09699 17.3037L0 17.2521V26.3812Z"
        fill="url(#paint0_linear_68_1716)" />

</svg>
