<svg width="58" height="58" viewBox="0 0 58 58" fill="none" xmlns="http://www.w3.org/2000/svg">
    <defs>
        <linearGradient id="paint0_linear_417_2324" x1="28.3427" y1="0.428589" x2="28.3427"
            y2="57.1217" gradientUnits="userSpaceOnUse">
            <stop stop-color="#7DB643" />
            <stop offset="1" stop-color="#399A4B" />
        </linearGradient>
    </defs>
    <path fill-rule="evenodd" clip-rule="evenodd"
        d="M10.0097 29.6119C9.66881 30.2487 9.6759 31.4888 10.0364 34.3064C10.9712 41.6105 12.7759 44.8232 18.4289 49.2452C22.6585 52.5539 24.0856 54.0327 24.7199 55.7653L25.2165 57.1215H28.6795H32.1426L32.1363 55.9739C32.105 50.1624 28.7621 44.3951 24.0439 42.0132C22.6485 41.3088 20.4824 39.8195 19.2301 38.7033C17.9782 37.5875 16.7034 36.6745 16.398 36.6745C14.7831 36.6745 15.5705 39.5283 17.9248 42.2102C19.5013 44.0053 19.5802 44.5403 18.0972 43.3736C15.5513 41.3706 13.6768 37.721 12.5139 32.5016C11.6751 28.736 10.9353 27.8827 10.0097 29.6119ZM55.7893 29.059C55.6859 29.2309 55.1167 31.2001 54.5241 33.4346C53.0119 39.1394 50.6346 43.351 48.9275 43.351C48.4113 43.351 48.4994 43.0919 49.3181 42.2035C50.981 40.3987 51.755 39.0726 51.755 38.029C51.755 36.2793 50.6121 36.4913 48.2089 38.6874C46.945 39.8429 44.7375 41.346 43.3037 42.0278C39.1146 44.0204 36.8704 47.2022 35.6749 52.8439C34.7156 57.371 34.5474 57.1215 38.56 57.1215H42.056L42.5977 55.8141C43.3997 53.8775 44.8239 52.3523 48.2081 49.8052C53.8214 45.5806 55.8277 42.5699 56.9411 36.7012C57.7247 32.5709 57.7798 29.9303 57.0963 29.2468C56.5229 28.6734 56.0606 28.6071 55.7893 29.059Z"
        fill="#E8B972" />
    <path fill-rule="evenodd" clip-rule="evenodd"
        d="M52.172 2.08624C39.227 9.13295 33.5348 18.582 37.1593 27.0074C38.8543 30.9474 39.4711 30.8072 42.8578 25.713C43.901 24.1436 44.8407 22.9451 44.9455 23.0499C45.3369 23.4409 43.3802 26.5563 40.7125 29.7894C37.9764 33.1064 34.646 38.9743 34.646 40.4786C34.646 42.4904 33.902 40.8488 32.8755 36.5703C32.068 33.2066 31.7613 30.8706 31.7934 28.3289C31.8431 24.3814 31.2935 22.5996 29.2188 19.9803C24.1129 13.5332 11.8004 12.026 2.82795 16.7497C1.50808 17.4445 0.428558 18.1371 0.428558 18.2886C0.428558 18.4405 1.52477 18.7906 2.86426 19.0673C6.2088 19.7583 8.60778 21.4784 12.1727 25.7426C15.9149 30.2188 16.792 31.025 19.3692 32.3558C21.3696 33.389 27.5521 34.2982 27.5521 33.5592C27.5521 32.4601 24.45 27.7447 22.3874 25.7092C19.5544 22.913 19.4739 22.2445 22.2234 24.3439C29.2864 29.7364 32.6021 37.982 33.2648 51.8013C33.4521 55.7062 33.662 57.1217 34.053 57.1217C34.3935 57.1217 34.679 56.2558 34.8442 54.7223C35.7084 46.697 36.036 44.4946 36.7829 41.6959C38.6065 34.8607 40.5502 32.4505 46.6184 29.5003C54.538 25.6495 55.4189 23.8527 55.6843 11.0066C55.779 6.41892 55.9881 2.14967 56.1492 1.51832C56.5514 -0.057353 55.9526 0.0281905 52.172 2.08624ZM19.0675 22.7653C18.9143 22.918 18.7891 22.7928 18.7891 22.4869C18.7891 22.1811 18.9143 22.0559 19.0675 22.2086C19.2202 22.3618 19.2202 22.6121 19.0675 22.7653Z"
        fill="url(#paint0_linear_417_2324)" />
</svg>
