<svg width="18" height="18" viewBox="0 0 18 18" fill="none" xmlns="http://www.w3.org/2000/svg">
<path opacity="0.2" d="M9 11.25C10.2426 11.25 11.25 10.2427 11.25 9.00002C11.25 7.75737 10.2426 6.75002 9 6.75002C7.75736 6.75002 6.75 7.75737 6.75 9.00002C6.75 10.2427 7.75736 11.25 9 11.25Z" fill="#115DA9"/>
<path d="M9 15.1875C12.4173 15.1875 15.1875 12.4172 15.1875 8.99997C15.1875 5.58271 12.4173 2.81247 9 2.81247C5.58274 2.81247 2.8125 5.58271 2.8125 8.99997C2.8125 12.4172 5.58274 15.1875 9 15.1875Z" stroke="#115DA9" stroke-width="1.5" stroke-linecap="round" stroke-linejoin="round"/>
<path d="M9 1.4063V4.2188" stroke="#115DA9" stroke-width="1.5" stroke-linecap="round" stroke-linejoin="round"/>
<path d="M1.40625 8.99995H4.21875" stroke="#115DA9" stroke-width="1.5" stroke-linecap="round" stroke-linejoin="round"/>
<path d="M9 16.5938V13.7813" stroke="#115DA9" stroke-width="1.5" stroke-linecap="round" stroke-linejoin="round"/>
<path d="M16.5938 8.99995H13.7812" stroke="#115DA9" stroke-width="1.5" stroke-linecap="round" stroke-linejoin="round"/>
<path d="M9 11.25C10.2426 11.25 11.25 10.2427 11.25 9.00002C11.25 7.75737 10.2426 6.75002 9 6.75002C7.75736 6.75002 6.75 7.75737 6.75 9.00002C6.75 10.2427 7.75736 11.25 9 11.25Z" stroke="#115DA9" stroke-width="1.5" stroke-linecap="round" stroke-linejoin="round"/>
</svg>
