<svg width="62" height="42" viewBox="0 0 62 42" fill="none" xmlns="http://www.w3.org/2000/svg">
<path d="M10.6482 2.20601C11.0502 1.20917 11.8708 0.807397 12.4572 2.20601H10.6482Z" fill="#115DA9"/>
<path d="M10.6482 2.20601V2.20601ZM10.6482 2.20601C11.0502 1.20917 11.8708 0.807397 12.4572 2.20601H10.6482Z" stroke="#115DA9" stroke-width="0.8"/>
<path d="M50.4473 1.90452C50.8493 0.907689 51.6699 0.505914 52.2563 1.90452H50.4473Z" fill="#115DA9"/>
<path d="M50.4473 1.90452V1.90452ZM50.4473 1.90452C50.8493 0.907689 51.6699 0.505914 52.2563 1.90452H50.4473Z" stroke="#115DA9" stroke-width="0.8"/>
<path d="M11.5988 11.5539C12.0424 12.3964 12.3995 12.8421 12.7254 12.9784C14.0414 13.5286 15.1903 11.5539 16.6167 11.5539H23.5641C23.9272 11.5539 24.2903 11.6007 24.6372 11.7082C26.4827 12.2808 27.2877 12.8936 28.3325 14.1167C30.8941 16.8492 32.3717 17.0897 35.1164 14.1167C36.094 12.8285 36.8103 12.2908 37.916 11.8178C38.3526 11.631 38.8268 11.5539 39.3017 11.5539H47.22C48.3448 11.5539 49.3328 12.1402 50.2741 12.7558C51.0366 13.2545 51.4166 12.8745 51.6993 11.5539C51.9647 10.674 52.137 10.0632 52.2684 9.44254C52.4137 8.75627 52.3603 8.01728 51.9745 7.43141C51.267 6.35693 50.3936 6.4437 48.9251 7.48951C48.1593 8.03485 47.2644 8.38804 46.3243 8.38804H39.5905C38.9296 8.38804 38.2796 8.21882 37.6887 7.92274C32.8715 5.50862 29.8179 5.54122 24.9978 7.93268C24.4127 8.22295 23.7699 8.38804 23.1168 8.38804H16.4735C15.5669 8.38804 14.6918 8.05535 14.0143 7.45306C13.8116 7.27291 13.5943 7.1051 13.3444 6.99986C13.0399 6.87166 12.7548 6.8276 12.375 6.90844C11.8432 7.02166 11.3874 7.37451 11.0869 7.82771C10.1222 9.28251 10.9575 10.1194 11.5988 11.5539Z" fill="#115DA9" stroke="#115DA9" stroke-width="2"/>
<path d="M1 4.1877C9.06673 2.66226 13.7887 2.84364 22.407 4.1877C13.8679 5.29507 9.17406 5.34268 1 4.1877Z" fill="#949494" stroke="#949494" stroke-width="0.8"/>
<path d="M39.593 3.88613C47.6597 2.36068 52.3816 2.54207 61 3.88613C52.4608 4.9935 47.767 5.04111 39.593 3.88613Z" fill="#949494" stroke="#949494" stroke-width="0.8"/>
<path d="M25.6334 16.5771C25.5741 17.1896 25.519 17.7234 25.4371 18.4875C25.1766 16.8844 24.9927 15.6846 25.0291 14.8559C25.0735 13.8468 26.6432 13.6853 26.3382 14.6482C26.1497 15.2434 25.6936 15.9556 25.6334 16.5771Z" fill="#115DA9"/>
<path d="M25.422 18.6382L25.4371 18.4875M25.4371 18.4875C25.519 17.7234 25.5741 17.1896 25.6334 16.5771C25.6936 15.9556 26.1497 15.2434 26.3382 14.6482V14.6482C26.6432 13.6853 25.0735 13.8468 25.0291 14.8559C24.9927 15.6846 25.1766 16.8844 25.4371 18.4875Z" stroke="#115DA9" stroke-width="0.5"/>
<path d="M37.3263 16.4252C37.3856 17.0382 37.4407 17.5722 37.5225 18.3367C37.7828 16.7341 37.9664 15.5346 37.9302 14.7059C37.886 13.6967 36.3169 13.5352 36.6224 14.4981C36.8109 15.0926 37.2663 15.8044 37.3263 16.4252Z" fill="#115DA9"/>
<path d="M37.5376 18.4874L37.5225 18.3367M37.5225 18.3367C37.4407 17.5722 37.3856 17.0382 37.3263 16.4252C37.2663 15.8044 36.8109 15.0926 36.6224 14.4981V14.4981C36.3169 13.5352 37.886 13.6967 37.9302 14.7059C37.9664 15.5346 37.7828 16.7341 37.5225 18.3367Z" stroke="#115DA9" stroke-width="0.5"/>
<path d="M40.625 25.4875C38.3182 27.7384 35.223 28.9983 32 28.9983C28.777 28.9983 25.6818 27.7384 23.375 25.4875" stroke="#508ABF" stroke-width="3" stroke-linecap="round" stroke-linejoin="round"/>
<path d="M44.8625 29.7249C41.434 33.1037 36.8137 34.9977 32 34.9977C27.1864 34.9977 22.5661 33.1037 19.1376 29.7249" stroke="#508ABF" stroke-width="3" stroke-linecap="round" stroke-linejoin="round"/>
</svg>
