<svg width="64" height="64" viewBox="0 0 64 64" fill="none" xmlns="http://www.w3.org/2000/svg">
<path d="M28.0002 11.9888L51.9888 35.9774C56.4115 40.4001 56.4151 47.5671 51.9968 51.9854C47.5785 56.4037 40.4115 56.4001 35.9888 51.9774L12.0002 27.9888C7.5775 23.5661 7.57394 16.3991 11.9922 11.9808C16.4105 7.56252 23.5776 7.56608 28.0002 11.9888Z" stroke="#090A0A" stroke-width="1.5" stroke-linecap="round" stroke-linejoin="round"/>
<path opacity="0.4" d="M35.9997 52C37.0493 53.0522 38.2963 53.887 39.669 54.4566C41.0418 55.0262 42.5134 55.3194 43.9997 55.3194C45.4859 55.3194 46.9576 55.0262 48.3303 54.4566C49.7031 53.887 50.95 53.0522 51.9997 52C53.0519 50.9503 53.8867 49.7034 54.4563 48.3307C55.0259 46.9579 55.3191 45.4862 55.3191 44C55.3191 42.5138 55.0259 41.0421 54.4563 39.6693C53.8867 38.2966 53.0519 37.0497 51.9997 36L39.9997 24L23.9997 40L35.9997 52Z" fill="#FF9912"/>
<path d="M40 24L24 40" stroke="#090A0A" stroke-width="1.5" stroke-linecap="round" stroke-linejoin="round"/>
<path d="M23.9753 28.025L17.8753 22.125" stroke="#090A0A" stroke-width="1.5" stroke-linecap="round" stroke-linejoin="round"/>
</svg>
