<svg width="50" height="50" viewBox="0 0 50 50" fill="none" xmlns="http://www.w3.org/2000/svg">
<path d="M31.6344 2.98771L32.6108 5.23336H24.2628V1.47433C24.2628 1.07402 24.5948 0.74205 24.9951 0.74205H32.6108L31.6344 2.98771Z" fill="#F69531"/>
<path d="M32.6108 0.74205H30.619L29.6426 2.98771L30.619 5.23336H32.6108L31.6344 2.98771L32.6108 0.74205Z" fill="#F48A31"/>
<path d="M33.1185 12.3706C30.082 9.33411 25.6102 8.25033 21.5192 9.54891C17.4282 10.8475 14.4015 14.3136 13.679 18.5413H36.3113C35.9109 16.198 34.7979 14.05 33.1185 12.3706Z" fill="#AEADB3"/>
<path d="M33.1186 12.3706C30.9705 10.2129 28.0414 9.00215 24.9951 9.00215C24.507 9.00215 24.0188 9.04121 23.5306 9.09979C28.5296 9.74419 32.523 13.5716 33.3822 18.5413H36.3113C35.911 16.2078 34.7979 14.05 33.1186 12.3706Z" fill="#787681"/>
<path d="M12.7319 18.5413H37.2583C38.1273 18.5413 38.8303 19.2443 38.8303 20.123C38.8303 20.992 38.1273 21.695 37.2583 21.695H12.7319C11.8629 21.695 11.1599 20.992 11.1599 20.123C11.1599 19.2443 11.8629 18.5413 12.7319 18.5413Z" fill="#C8C5CC"/>
<path d="M37.2583 18.5413H34.3292C34.7491 18.5413 35.1494 18.7073 35.4423 19.0002C35.7352 19.2931 35.9012 19.7032 35.9012 20.1133C35.9012 20.9822 35.1982 21.6852 34.3292 21.6852H37.2583C38.1273 21.6852 38.8303 20.9822 38.8303 20.1133C38.8303 19.6934 38.6643 19.2931 38.3714 19.0002C38.0785 18.7073 37.6782 18.5413 37.2583 18.5413Z" fill="#AEADB3"/>
<path d="M42.7455 25.6005H8.05505V46.3386H42.7455V25.6005Z" fill="#AEADB3"/>
<path d="M42.7456 25.6005H39.8165V46.3386H42.7456V25.6005Z" fill="#8B8893"/>
<path d="M15.7489 30.7752V45.4696H12.3414V30.7752H15.7489Z" fill="#DADADC"/>
<path d="M15.7489 30.7752H14.2843V45.4696H15.7489V30.7752Z" fill="#C8C5CC"/>
<path d="M10.8768 28.6663H17.2134C17.2134 30.1504 16.0027 31.3611 14.5186 31.3611H13.5716C12.0875 31.3611 10.8768 30.1504 10.8768 28.6663Z" fill="#8B8893"/>
<path d="M15.7391 28.6663C15.7391 30.0527 14.6846 31.2146 13.3079 31.3513C13.3958 31.3611 13.4837 31.3611 13.5715 31.3611H14.5186C16.0027 31.3611 17.2134 30.1504 17.2134 28.6663H15.7391Z" fill="#787681"/>
<path d="M13.5716 43.6438H14.5186C16.0027 43.6438 17.2134 44.8545 17.2134 46.3386H10.8768C10.8768 45.6259 11.1599 44.9424 11.6676 44.4347C12.1753 43.927 12.8588 43.6438 13.5716 43.6438Z" fill="#8B8893"/>
<path d="M14.5089 43.6438H13.5715C13.4837 43.6438 13.3958 43.6438 13.3079 43.6536C14.6846 43.7903 15.7391 44.9522 15.7391 46.3386H17.2036C17.2036 44.8448 16.0027 43.6438 14.5089 43.6438Z" fill="#787681"/>
<path d="M37.8149 31.0584V45.1377H34.4073V31.0584H37.8149Z" fill="#DADADC"/>
<path d="M37.8149 31.0584H36.3503V45.1377H37.8149V31.0584Z" fill="#C8C5CC"/>
<path d="M39.2697 28.6663C39.2697 30.1504 38.059 31.3611 36.5749 31.3611H35.6376C34.1535 31.3611 32.9428 30.1504 32.9428 28.6663" fill="#8B8893"/>
<path d="M37.8051 28.6663C37.8051 30.0527 36.7506 31.2146 35.374 31.3513C35.4618 31.3611 35.5497 31.3611 35.6376 31.3611H36.5847C38.0688 31.3611 39.2794 30.1504 39.2794 28.6663H37.8051Z" fill="#787681"/>
<path d="M35.6376 43.6438H36.5847C38.0688 43.6438 39.2795 44.8545 39.2795 46.3386H32.9428C32.9428 45.6259 33.226 44.9424 33.7337 44.4347C34.2414 43.927 34.9248 43.6438 35.6376 43.6438Z" fill="#8B8893"/>
<path d="M36.5749 43.6438H35.6376C35.5497 43.6438 35.4618 43.6438 35.374 43.6536C36.7506 43.7903 37.8051 44.9522 37.8051 46.3386H39.2697C39.2697 44.8448 38.0688 43.6438 36.5749 43.6438Z" fill="#787681"/>
<path d="M36.4773 21.695H13.513V25.6005H36.4773V21.695Z" fill="#AEADB3"/>
<path d="M36.4773 21.695H33.5482V25.6005H36.4773V21.695Z" fill="#787681"/>
<path d="M47.7934 49.2677H2.19684L3.26108 47.149C3.50518 46.651 4.01289 46.3386 4.56942 46.3386H45.4306C45.9871 46.3386 46.4948 46.651 46.7389 47.149L47.7934 49.2677Z" fill="#C8C5CC"/>
<path d="M46.7292 47.149C46.4851 46.651 45.9773 46.3386 45.4208 46.3386H42.4917C43.0482 46.3386 43.5559 46.651 43.8 47.149L44.8643 49.2677H47.7934L46.7292 47.149Z" fill="#AEADB3"/>
<path d="M7.26423 25.6005H42.7163C43.5657 25.6005 44.2492 26.2839 44.2492 27.1334C44.2492 27.9828 43.5657 28.6663 42.7163 28.6663H7.26423C6.41478 28.6663 5.73132 27.9828 5.73132 27.1334C5.73132 26.2839 6.42455 25.6005 7.26423 25.6005Z" fill="#C8C5CC"/>
<path d="M42.7261 25.6005H39.7969C40.6464 25.6005 41.3298 26.2839 41.3298 27.1334C41.3298 27.9828 40.6464 28.6663 39.7969 28.6663H42.7261C43.5755 28.6663 44.259 27.9828 44.259 27.1334C44.259 26.2839 43.5657 25.6005 42.7261 25.6005Z" fill="#AEADB3"/>
<path d="M29.2131 46.3386H20.7772V39.1037C20.7772 36.4284 22.4663 34.0558 24.9951 33.1771C27.5142 34.0558 29.2131 36.4284 29.2131 39.1037V46.3386Z" fill="#787681"/>
<path d="M24.9951 33.1771C24.7412 33.265 24.4971 33.3626 24.2628 33.4895C26.4011 34.5538 27.7485 36.7213 27.7485 39.1135V46.3484H29.213V39.1135C29.213 36.4284 27.5141 34.0558 24.9951 33.1771Z" fill="#57565C"/>
<path d="M49.258 50H0.732279C0.331966 50 0 49.668 0 49.2677C0 48.8674 0.331966 48.5354 0.732279 48.5354H49.258C49.6583 48.5354 49.9902 48.8674 49.9902 49.2677C49.9902 49.668 49.6583 50 49.258 50Z" fill="#8B8893"/>
<path d="M24.9951 30.2578C21.4997 30.2578 18.4925 27.7973 17.809 24.3702C17.1256 20.9432 18.9514 17.5161 22.1832 16.1687C25.4052 14.8311 29.135 15.9539 31.0779 18.8635C33.0209 21.7633 32.6401 25.6395 30.1699 28.1097C28.803 29.4864 26.9381 30.2578 24.9951 30.2578Z" fill="#FED947"/>
<path d="M24.9951 30.2578C21.4997 30.2578 18.4925 27.7973 17.809 24.3702C17.1256 20.9432 18.9514 17.5161 22.1832 16.1687C25.4052 14.8311 29.135 15.9539 31.0779 18.8635C33.0209 21.7633 32.6401 25.6395 30.1699 28.1097C28.803 29.4864 26.9381 30.2578 24.9951 30.2578Z" fill="#FED947"/>
<path d="M30.1699 17.7602C28.803 16.3835 26.9381 15.6122 24.9951 15.6122C24.585 15.6122 24.175 15.6512 23.7747 15.7098C27.2994 16.3054 29.877 19.3615 29.877 22.935C29.877 26.5085 27.2994 29.5548 23.7747 30.1504C24.175 30.2187 24.585 30.248 24.9951 30.2578C27.9535 30.2578 30.619 28.471 31.7516 25.7372C32.8842 22.9936 32.2593 19.8496 30.1699 17.7602Z" fill="#F8BE32"/>
<path d="M26.362 28.2562C26.6647 28.2562 26.9283 28.0707 27.0455 27.7973C27.1529 27.5239 27.0943 27.2017 26.8795 26.9967L24.1261 24.3214H24.1945C25.5809 24.3214 26.7819 23.3646 27.0943 22.0172H27.6899C28.0902 22.0172 28.4222 21.6852 28.4222 21.2849C28.4222 20.8846 28.0902 20.5526 27.6899 20.5526H27.0748C27.0064 20.289 26.899 20.0254 26.7526 19.7911H27.6899C28.0902 19.7911 28.4222 19.4591 28.4222 19.0588C28.4222 18.6585 28.0902 18.3265 27.6899 18.3265H22.3589C21.9586 18.3265 21.6266 18.6585 21.6266 19.0588C21.6266 19.4591 21.9586 19.7911 22.3589 19.7911H24.2043C24.751 19.7911 25.249 20.084 25.5126 20.5526H22.3589C21.9586 20.5526 21.6266 20.8846 21.6266 21.2849C21.6266 21.6852 21.9586 22.0172 22.3589 22.0172H25.5517C25.2978 22.5249 24.7706 22.8471 24.1945 22.8569H22.398C22.0855 22.8276 21.7926 22.9936 21.6559 23.2767C21.5192 23.5599 21.5876 23.8918 21.8121 24.1164L25.8641 28.0512C25.991 28.1879 26.1765 28.2562 26.362 28.2562ZM49.258 48.5257H48.2425L47.3833 46.8073C47.0123 46.0652 46.2507 45.5868 45.4208 45.5966H43.4778V29.2619C44.5128 28.9006 45.1377 27.8461 44.9619 26.7624C44.7862 25.6786 43.8586 24.878 42.7651 24.8584H37.2095V22.4175H37.2584C38.5374 22.4175 39.5626 21.3825 39.5626 20.1035C39.5626 18.8244 38.5276 17.7993 37.2584 17.7993H36.9166C35.7254 12.4976 31.1658 8.6116 25.7274 8.2894V5.95587H32.6108C32.8549 5.95587 33.0892 5.82894 33.2259 5.6239C33.3626 5.41886 33.3822 5.15524 33.2845 4.93068L32.4351 2.97793L33.2845 1.02519C33.3822 0.800625 33.3626 0.537005 33.2259 0.331966C33.0892 0.126928 32.8549 0 32.6108 0H24.9951C24.5948 0 24.2628 0.331966 24.2628 0.732279V8.2894C18.8342 8.6116 14.2746 12.4878 13.0736 17.7993H12.7319C11.4528 17.7993 10.4277 18.8342 10.4277 20.1133C10.4277 21.3923 11.4626 22.4175 12.7319 22.4175H12.7807V24.8584H7.26421C6.01445 24.8584 4.99902 25.8739 4.99902 27.1236C4.99902 28.3734 6.01445 29.3888 7.26421 29.3888H7.32279V45.5966H4.56942C3.7395 45.5966 2.97793 46.0652 2.60691 46.8073L1.74771 48.5257H0.732279C0.331966 48.5257 0 48.8576 0 49.258C0 49.6583 0.331966 49.9902 0.732279 49.9902H49.258C49.6583 49.9902 49.9902 49.6583 49.9902 49.258C49.9902 48.8576 49.6583 48.5257 49.258 48.5257ZM25.7274 1.46456H31.4978L30.9705 2.68502C30.8924 2.87053 30.8924 3.08534 30.9705 3.27085L31.4978 4.49131H25.7274V1.46456ZM42.726 26.323C43.1654 26.323 43.5267 26.6842 43.5267 27.1236C43.5267 27.563 43.1654 27.9242 42.726 27.9242H31.3122C31.7028 27.436 32.0348 26.8893 32.3081 26.323H42.726ZM42.0133 29.3888V45.5966H39.9434C39.7774 44.7081 39.2794 43.927 38.5374 43.4095V31.4587C39.2404 30.9608 39.7383 30.2285 39.9238 29.3888H42.0133ZM36.5749 30.619H35.6376C34.8369 30.619 34.1144 30.1308 33.8215 29.3888H38.4007C38.098 30.1308 37.3755 30.619 36.5749 30.619ZM37.0826 32.0445V42.8237C36.9166 42.8041 36.7506 42.7846 36.5847 42.7846H35.6376C35.4716 42.7846 35.3056 42.7944 35.1396 42.8237V32.0445C35.3056 32.0641 35.4716 32.0836 35.6376 32.0836H36.5847C36.7506 32.0836 36.9166 32.0738 37.0826 32.0445ZM35.6376 44.2492H36.5847C37.4341 44.2492 38.1761 44.7959 38.4495 45.5966H33.7825C34.0363 44.7959 34.7881 44.2492 35.6376 44.2492ZM25.2392 32.357C25.083 32.2984 24.917 32.2984 24.7608 32.357C21.9391 33.3333 20.0547 35.9891 20.0547 38.9768V45.5966H17.8871C17.7211 44.7081 17.2232 43.927 16.4812 43.4095V31.4587C17.1841 30.9608 17.6821 30.2285 17.8578 29.3888H20.1816C23.0326 31.5075 26.9479 31.5075 29.7989 29.3888H32.2789C32.4644 30.2285 32.9525 30.9705 33.6653 31.4587V43.3997C32.9233 43.9172 32.4253 44.7081 32.2593 45.5868H29.9356V38.967C29.9453 35.9988 28.0512 33.3431 25.2392 32.357ZM28.4808 38.9768V45.4794H21.5095V38.9768C21.5095 36.7116 22.8862 34.671 24.9951 33.8313C27.0943 34.671 28.4808 36.7116 28.4808 38.9768ZM18.4046 22.9252C18.4046 19.7813 20.6307 17.0767 23.7063 16.4616C26.7916 15.8465 29.877 17.4966 31.0779 20.4062C32.2789 23.306 31.2634 26.6647 28.6467 28.4124C26.0301 30.1601 22.5444 29.8184 20.3281 27.5923C19.0978 26.3523 18.3948 24.6729 18.4046 22.9252ZM33.0307 22.4175H35.745V24.8584H32.8159C32.9721 24.2238 33.0502 23.5794 33.0502 22.9252C33.0502 22.7592 33.0404 22.5835 33.0307 22.4175ZM36.3113 19.2638H37.2584C37.727 19.2638 38.098 19.6446 38.098 20.1133C38.098 20.5819 37.7172 20.9529 37.2584 20.9529H32.8061C32.6596 20.3671 32.4448 19.8008 32.1715 19.2638H36.3113ZM18.0238 12.2925C20.8455 9.89065 24.7022 9.11931 28.2367 10.2324C31.7711 11.3552 34.4757 14.2062 35.4032 17.7993H31.2048C31.0389 17.604 30.8729 17.4087 30.6874 17.233C27.5434 14.089 22.4468 14.089 19.2931 17.233C19.1076 17.4185 18.9416 17.604 18.7756 17.7993H14.5772C15.1338 15.6512 16.3445 13.7278 18.0238 12.2925ZM12.7319 20.9529C12.2632 20.9529 11.8922 20.5722 11.8922 20.1133C11.8922 19.6446 12.273 19.2638 12.7319 19.2638H17.8188C17.5454 19.8008 17.3306 20.3671 17.1841 20.9529H12.7319ZM17.1744 24.8584H14.2453V22.4175H16.9596C16.9498 22.5835 16.9401 22.7592 16.9401 22.9252C16.9401 23.5794 17.0182 24.2238 17.1744 24.8584ZM7.26421 27.9242C6.82484 27.9242 6.46358 27.563 6.46358 27.1236C6.46358 26.6842 6.82484 26.323 7.26421 26.323H17.6821C17.9457 26.899 18.2777 27.436 18.678 27.9242H7.26421ZM14.5089 30.619H13.5716C12.7709 30.619 12.0484 30.1308 11.7555 29.3888H16.3347C16.032 30.1308 15.3095 30.619 14.5089 30.619ZM15.0166 32.0445V42.8237C14.8506 42.8041 14.6846 42.7846 14.5186 42.7846H13.5716C13.4056 42.7846 13.2396 42.7944 13.0736 42.8237V32.0445C13.2396 32.0641 13.4056 32.0836 13.5716 32.0836H14.5186C14.6846 32.0836 14.8506 32.0738 15.0166 32.0445ZM13.5716 44.2492H14.5186C15.3681 44.2492 16.1101 44.7959 16.3835 45.5966H11.7165C11.9703 44.7959 12.7221 44.2492 13.5716 44.2492ZM11.6091 31.4587V43.4095C10.867 43.927 10.3691 44.7178 10.2031 45.5966H8.78735V29.3888H10.2226C10.4081 30.2285 10.8963 30.9705 11.6091 31.4587ZM3.37825 48.5257L3.90549 47.4614C4.03242 47.2173 4.28627 47.0514 4.55966 47.0611H45.4208C45.6942 47.0611 45.9481 47.2173 46.075 47.4614L46.6022 48.5257H3.37825Z" fill="#3C3B41"/>
<path d="M30.1699 17.7602C28.803 16.3835 26.9381 15.6122 24.9951 15.6122C24.585 15.6122 24.175 15.6512 23.7747 15.7098C27.2994 16.3054 29.877 19.3615 29.877 22.935C29.877 26.5085 27.2994 29.5548 23.7747 30.1504C24.175 30.2187 24.585 30.248 24.9951 30.2578C27.9535 30.2578 30.619 28.471 31.7516 25.7372C32.8842 22.9936 32.2593 19.8496 30.1699 17.7602Z" fill="#F8BE32"/>
<path d="M26.362 28.2562C26.6647 28.2562 26.9283 28.0707 27.0455 27.7973C27.1529 27.5239 27.0943 27.2017 26.8795 26.9967L24.1261 24.3214H24.1945C25.5809 24.3214 26.7819 23.3646 27.0943 22.0172H27.6899C28.0902 22.0172 28.4222 21.6852 28.4222 21.2849C28.4222 20.8846 28.0902 20.5526 27.6899 20.5526H27.0748C27.0064 20.289 26.899 20.0254 26.7526 19.7911H27.6899C28.0902 19.7911 28.4222 19.4591 28.4222 19.0588C28.4222 18.6585 28.0902 18.3265 27.6899 18.3265H22.3589C21.9586 18.3265 21.6266 18.6585 21.6266 19.0588C21.6266 19.4591 21.9586 19.7911 22.3589 19.7911H24.2043C24.751 19.7911 25.249 20.084 25.5126 20.5526H22.3589C21.9586 20.5526 21.6266 20.8846 21.6266 21.2849C21.6266 21.6852 21.9586 22.0172 22.3589 22.0172H25.5517C25.2978 22.5249 24.7706 22.8471 24.1945 22.8569H22.398C22.0855 22.8276 21.7926 22.9936 21.6559 23.2767C21.5192 23.5599 21.5876 23.8918 21.8121 24.1164L25.8641 28.0512C25.991 28.1879 26.1765 28.2562 26.362 28.2562ZM49.258 48.5257H48.2425L47.3833 46.8073C47.0123 46.0652 46.2507 45.5868 45.4208 45.5966H43.4778V29.2619C44.5128 28.9006 45.1377 27.8461 44.9619 26.7624C44.7862 25.6786 43.8586 24.878 42.7651 24.8584H37.2095V22.4175H37.2584C38.5374 22.4175 39.5626 21.3825 39.5626 20.1035C39.5626 18.8244 38.5276 17.7993 37.2584 17.7993H36.9166C35.7254 12.4976 31.1658 8.6116 25.7274 8.2894V5.95587H32.6108C32.8549 5.95587 33.0892 5.82894 33.2259 5.6239C33.3626 5.41886 33.3822 5.15524 33.2845 4.93068L32.4351 2.97793L33.2845 1.02519C33.3822 0.800625 33.3626 0.537004 33.2259 0.331966C33.0892 0.126928 32.8549 0 32.6108 0H24.9951C24.5948 0 24.2628 0.331966 24.2628 0.732279V8.2894C18.8342 8.6116 14.2746 12.4878 13.0736 17.7993H12.7319C11.4528 17.7993 10.4277 18.8342 10.4277 20.1133C10.4277 21.3923 11.4626 22.4175 12.7319 22.4175H12.7807V24.8584H7.26421C6.01445 24.8584 4.99902 25.8739 4.99902 27.1236C4.99902 28.3734 6.01445 29.3888 7.26421 29.3888H7.32279V45.5966H4.56942C3.7395 45.5966 2.97793 46.0652 2.60691 46.8073L1.74771 48.5257H0.732279C0.331966 48.5257 0 48.8576 0 49.258C0 49.6583 0.331966 49.9902 0.732279 49.9902H49.258C49.6583 49.9902 49.9902 49.6583 49.9902 49.258C49.9902 48.8576 49.6583 48.5257 49.258 48.5257ZM25.7274 1.46456H31.4978L30.9705 2.68502C30.8924 2.87053 30.8924 3.08534 30.9705 3.27085L31.4978 4.49131H25.7274V1.46456ZM42.726 26.323C43.1654 26.323 43.5267 26.6842 43.5267 27.1236C43.5267 27.563 43.1654 27.9242 42.726 27.9242H31.3122C31.7028 27.436 32.0348 26.8893 32.3081 26.323H42.726ZM42.0133 29.3888V45.5966H39.9434C39.7774 44.7081 39.2794 43.927 38.5374 43.4095V31.4587C39.2404 30.9608 39.7383 30.2285 39.9238 29.3888H42.0133ZM36.5749 30.619H35.6376C34.8369 30.619 34.1144 30.1308 33.8215 29.3888H38.4007C38.098 30.1308 37.3755 30.619 36.5749 30.619ZM37.0826 32.0445V42.8237C36.9166 42.8041 36.7506 42.7846 36.5847 42.7846H35.6376C35.4716 42.7846 35.3056 42.7944 35.1396 42.8237V32.0445C35.3056 32.0641 35.4716 32.0836 35.6376 32.0836H36.5847C36.7506 32.0836 36.9166 32.0738 37.0826 32.0445ZM35.6376 44.2492H36.5847C37.4341 44.2492 38.1761 44.7959 38.4495 45.5966H33.7825C34.0363 44.7959 34.7881 44.2492 35.6376 44.2492ZM25.2392 32.357C25.083 32.2984 24.917 32.2984 24.7608 32.357C21.9391 33.3333 20.0547 35.9891 20.0547 38.9768V45.5966H17.8871C17.7211 44.7081 17.2232 43.927 16.4812 43.4095V31.4587C17.1841 30.9608 17.6821 30.2285 17.8578 29.3888H20.1816C23.0326 31.5075 26.9479 31.5075 29.7989 29.3888H32.2789C32.4644 30.2285 32.9525 30.9705 33.6653 31.4587V43.3997C32.9233 43.9172 32.4253 44.7081 32.2593 45.5868H29.9356V38.967C29.9453 35.9988 28.0512 33.3431 25.2392 32.357ZM28.4808 38.9768V45.4794H21.5095V38.9768C21.5095 36.7116 22.8862 34.671 24.9951 33.8313C27.0943 34.671 28.4808 36.7116 28.4808 38.9768ZM18.4046 22.9252C18.4046 19.7813 20.6307 17.0767 23.7063 16.4616C26.7916 15.8465 29.877 17.4966 31.0779 20.4062C32.2789 23.306 31.2634 26.6647 28.6467 28.4124C26.0301 30.1601 22.5444 29.8184 20.3281 27.5923C19.0978 26.3523 18.3948 24.6729 18.4046 22.9252ZM33.0307 22.4175H35.745V24.8584H32.8159C32.9721 24.2238 33.0502 23.5794 33.0502 22.9252C33.0502 22.7592 33.0404 22.5835 33.0307 22.4175ZM36.3113 19.2638H37.2584C37.727 19.2638 38.098 19.6446 38.098 20.1133C38.098 20.5819 37.7172 20.9529 37.2584 20.9529H32.8061C32.6596 20.3671 32.4448 19.8008 32.1715 19.2638H36.3113ZM18.0238 12.2925C20.8455 9.89065 24.7022 9.11931 28.2367 10.2324C31.7711 11.3552 34.4757 14.2062 35.4032 17.7993H31.2048C31.0389 17.604 30.8729 17.4087 30.6874 17.233C27.5434 14.089 22.4468 14.089 19.2931 17.233C19.1076 17.4185 18.9416 17.604 18.7756 17.7993H14.5772C15.1338 15.6512 16.3445 13.7278 18.0238 12.2925ZM12.7319 20.9529C12.2632 20.9529 11.8922 20.5722 11.8922 20.1133C11.8922 19.6446 12.273 19.2638 12.7319 19.2638H17.8188C17.5454 19.8008 17.3306 20.3671 17.1841 20.9529H12.7319ZM17.1744 24.8584H14.2453V22.4175H16.9596C16.9498 22.5835 16.9401 22.7592 16.9401 22.9252C16.9401 23.5794 17.0182 24.2238 17.1744 24.8584ZM7.26421 27.9242C6.82484 27.9242 6.46358 27.563 6.46358 27.1236C6.46358 26.6842 6.82484 26.323 7.26421 26.323H17.6821C17.9457 26.899 18.2777 27.436 18.678 27.9242H7.26421ZM14.5089 30.619H13.5716C12.7709 30.619 12.0484 30.1308 11.7555 29.3888H16.3347C16.032 30.1308 15.3095 30.619 14.5089 30.619ZM15.0166 32.0445V42.8237C14.8506 42.8041 14.6846 42.7846 14.5186 42.7846H13.5716C13.4056 42.7846 13.2396 42.7944 13.0736 42.8237V32.0445C13.2396 32.0641 13.4056 32.0836 13.5716 32.0836H14.5186C14.6846 32.0836 14.8506 32.0738 15.0166 32.0445ZM13.5716 44.2492H14.5186C15.3681 44.2492 16.1101 44.7959 16.3835 45.5966H11.7165C11.9703 44.7959 12.7221 44.2492 13.5716 44.2492ZM11.6091 31.4587V43.4095C10.867 43.927 10.3691 44.7178 10.2031 45.5966H8.78735V29.3888H10.2226C10.4081 30.2285 10.8963 30.9705 11.6091 31.4587ZM3.37825 48.5257L3.90549 47.4614C4.03242 47.2173 4.28627 47.0514 4.55966 47.0611H45.4208C45.6942 47.0611 45.9481 47.2173 46.075 47.4614L46.6022 48.5257H3.37825Z" fill="#3C3B41"/>
</svg>
