<svg width="24" height="24" viewBox="0 0 24 24" fill="none" xmlns="http://www.w3.org/2000/svg">
<path d="M9.35254 8.22V11.145C9.57254 10.715 9.88754 10.375 10.2975 10.125C10.7175 9.865 11.2225 9.735 11.8125 9.735C12.4225 9.735 12.9625 9.885 13.4325 10.185C13.9025 10.475 14.2675 10.88 14.5275 11.4C14.7875 11.91 14.9175 12.495 14.9175 13.155C14.9175 13.865 14.7825 14.48 14.5125 15C14.2425 15.51 13.8725 15.905 13.4025 16.185C12.9325 16.455 12.3975 16.59 11.7975 16.59C11.4375 16.59 11.1175 16.555 10.8375 16.485V15.24C10.9875 15.28 11.1725 15.3 11.3925 15.3C11.9525 15.3 12.4125 15.115 12.7725 14.745C13.1425 14.365 13.3275 13.845 13.3275 13.185C13.3275 12.565 13.1375 12.06 12.7575 11.67C12.3875 11.28 11.9175 11.085 11.3475 11.085C10.6875 11.085 10.1875 11.305 9.84754 11.745C9.51754 12.185 9.35254 12.71 9.35254 13.32V18H7.83754V15.255C7.60754 15.685 7.27254 16.03 6.83254 16.29C6.39254 16.55 5.86254 16.68 5.24254 16.68C4.62254 16.68 4.07254 16.535 3.59254 16.245C3.11254 15.955 2.73754 15.55 2.46754 15.03C2.20754 14.5 2.07754 13.885 2.07754 13.185C2.07754 12.495 2.21254 11.89 2.48254 11.37C2.75254 10.85 3.13254 10.45 3.62254 10.17C4.11254 9.88 4.67254 9.735 5.30254 9.735C5.90254 9.735 6.41754 9.86 6.84754 10.11C7.27754 10.36 7.60754 10.695 7.83754 11.115V8.22H0.742539V6.9H16.2375V8.22H9.35254ZM5.75254 15.36C6.20254 15.36 6.58254 15.255 6.89254 15.045C7.21254 14.835 7.44754 14.565 7.59754 14.235C7.75754 13.905 7.83754 13.565 7.83754 13.215C7.83754 12.645 7.65754 12.15 7.29754 11.73C6.93754 11.3 6.42254 11.085 5.75254 11.085C5.16254 11.085 4.66754 11.28 4.26754 11.67C3.86754 12.05 3.66754 12.56 3.66754 13.2C3.66754 13.86 3.86254 14.385 4.25254 14.775C4.64254 15.165 5.14254 15.36 5.75254 15.36Z" fill="#090A0A"/>
<path d="M21.75 20.25L16.5 9.75L11.25 20.25" stroke="#090A0A" stroke-width="1.5" stroke-linecap="round" stroke-linejoin="round"/>
<path d="M12.75 17.25H20.25" stroke="#090A0A" stroke-width="1.5" stroke-linecap="round" stroke-linejoin="round"/>
</svg>
