<svg width="12" height="13" viewBox="0 0 12 13" fill="none" xmlns="http://www.w3.org/2000/svg">
<path d="M6 6.875C6.82843 6.875 7.5 6.20343 7.5 5.375C7.5 4.54657 6.82843 3.875 6 3.875C5.17157 3.875 4.5 4.54657 4.5 5.375C4.5 6.20343 5.17157 6.875 6 6.875Z" stroke="#454545" stroke-linecap="round" stroke-linejoin="round"/>
<path d="M9.75 5.375C9.75 8.75 6 11.375 6 11.375C6 11.375 2.25 8.75 2.25 5.375C2.25 4.38044 2.64509 3.42661 3.34835 2.72335C4.05161 2.02009 5.00544 1.625 6 1.625C6.99456 1.625 7.94839 2.02009 8.65165 2.72335C9.35491 3.42661 9.75 4.38044 9.75 5.375V5.375Z" stroke="#454545" stroke-linecap="round" stroke-linejoin="round"/>
</svg>
