<svg width="44" height="50" viewBox="0 0 44 50" fill="none" xmlns="http://www.w3.org/2000/svg">
    <defs>
        <linearGradient id="paint0_linear_360_1723" x1="25.739" y1="6.14107" x2="18.8246"
            y2="43.2289" gradientUnits="userSpaceOnUse">
            <stop stop-color="#428B35" />
            <stop offset="1" stop-color="#3B964C" />
        </linearGradient>
        <linearGradient id="paint1_linear_360_1723" x1="22.2818" y1="11.6431" x2="22.2818"
            y2="49.3699" gradientUnits="userSpaceOnUse">
            <stop stop-color="#7ABE35" />
            <stop offset="1" stop-color="#399A4B" />
        </linearGradient>
    </defs>
    <path
        d="M22.4188 42.1719C19.4564 42.1535 17.1807 39.4648 16.4167 35.0806C16.1936 33.8002 16.2317 33.6262 16.6698 33.925C16.8454 34.0447 18.1271 34.6134 19.5183 35.1889C23.4138 36.8007 23.8682 37.2569 24.1949 39.8839C24.4452 41.8968 24.4328 42.3865 26.3251 43.7041C25.8656 43.5239 24.3695 42.6792 23.6498 41.5336C22.9483 40.4167 22.2065 39.5083 22.0451 39.5685C22.0019 39.5846 22.2672 39.9852 22.6347 40.4585C23.8275 41.995 23.8042 42.1804 22.4188 42.1719Z"
        fill="#316811" />
    <path
        d="M27.7136 37.477C27.5825 34.5174 30.153 32.1089 34.4931 31.1248C35.7606 30.8374 35.9363 30.8666 35.66 31.3193C35.5493 31.5007 35.046 32.8094 34.5413 34.2279C33.1281 38.1997 32.6954 38.6765 30.0882 39.1354C28.0905 39.4869 27.6008 39.4992 26.3803 41.4555C26.5372 40.9875 27.3053 39.4507 28.4131 38.6741C29.4932 37.9172 30.363 37.1306 30.2947 36.9724C30.2765 36.9301 29.8898 37.2152 29.4356 37.6061C27.9613 38.8749 27.7749 38.861 27.7136 37.477Z"
        fill="#316811" />
    <path
        d="M22.438 19.5266C19.1419 14.3895 21.851 7.56698 29.583 1.5326C31.8411 -0.229789 32.2249 -0.351088 32.1322 0.727109C32.0951 1.15912 32.4223 3.98465 32.8592 7.00677C34.0824 15.4692 33.6995 16.7447 28.9191 20.1342C25.2562 22.7311 24.2827 23.2363 23.8291 27.922C23.6654 26.9344 23.6378 23.4418 25.0733 20.9665C26.473 18.5537 27.4186 16.2956 27.1191 16.0814C27.039 16.0241 26.5524 16.9131 26.0382 18.0569C24.369 21.7697 23.9794 21.9288 22.438 19.5266Z"
        fill="#65B23C" />
    <path fill-rule="evenodd" clip-rule="evenodd"
        d="M41.1256 10.1318C31.7977 13.1628 26.9215 18.65 28.2651 24.6038C28.8934 27.3881 29.314 27.3716 32.1508 24.452C33.0247 23.5526 33.7856 22.8832 33.8413 22.9645C34.0497 23.268 32.3897 25.0675 30.2502 26.8572C28.0557 28.6934 25.1614 32.1259 24.9779 33.11C24.7326 34.4261 24.4461 33.2614 24.2963 30.3373C24.1784 28.0383 24.2626 26.4728 24.5936 24.8139C25.1076 22.2376 24.9654 21.0049 23.9275 19.0384C21.3736 14.1981 13.5028 11.7104 7.05705 13.7062C6.10887 13.9998 5.31819 14.3213 5.29971 14.4204C5.28119 14.5197 5.95561 14.8825 6.79814 15.2268C8.90182 16.0868 10.2614 17.5046 12.0734 20.729C13.9756 24.1137 14.4511 24.7481 15.9747 25.9329C17.1574 26.8528 21.091 28.2017 21.1811 27.7182C21.3152 26.9992 19.8609 23.5361 18.7598 21.953C17.2476 19.7782 17.2764 19.3311 18.8191 21.0398C22.7819 25.4289 26.2299 31.0475 24.9779 40.1687C24.6242 42.7461 25.9716 47.689 26.2274 47.7367C26.4502 47.7782 25.9323 42.8982 26.2274 41.9151C27.7715 36.7705 25.3974 35.9067 26.2274 34.1669C28.254 29.9179 29.8195 28.5782 34.149 27.3883C39.7996 25.8351 40.595 24.7671 42.3354 16.3957C42.9569 13.4061 43.6143 10.6387 43.7967 10.2453C44.252 9.26358 43.8499 9.24651 41.1256 10.1318ZM16.947 19.6222C16.8282 19.7034 16.7616 19.6062 16.7989 19.4061C16.8362 19.2061 16.9334 19.1394 17.0149 19.258C17.0962 19.3768 17.0656 19.5406 16.947 19.6222Z"
        fill="url(#paint0_linear_360_1723)" />
    <path fill-rule="evenodd" clip-rule="evenodd"
        d="M38.1392 12.7462C29.5248 17.4355 25.7369 23.7234 28.1489 29.3302C29.2768 31.9521 29.6873 31.8588 31.941 28.4688C32.6352 27.4244 33.2605 26.6269 33.3302 26.6966C33.5907 26.9568 32.2886 29.03 30.5134 31.1815C28.6926 33.3888 26.4764 37.2936 26.4764 38.2947C26.4764 39.6334 25.9813 38.541 25.2982 35.6939C24.7608 33.4555 24.5567 31.901 24.5781 30.2096C24.6112 27.5827 24.2454 26.397 22.8648 24.6539C19.467 20.3637 11.2736 19.3607 5.30281 22.5041C4.42449 22.9664 3.70612 23.4274 3.70612 23.5282C3.70612 23.6293 4.4356 23.8622 5.32697 24.0464C7.55262 24.5062 9.14904 25.6508 11.5213 28.4885C14.0116 31.4672 14.5953 32.0037 16.3103 32.8893C17.6415 33.5768 21.7557 34.1819 21.7557 33.6901C21.7557 32.9587 19.6914 29.8208 18.3188 28.4663C16.4336 26.6055 16.38 26.1607 18.2097 27.5577C22.9098 31.1462 25.1163 36.6333 25.5572 45.8294C25.6819 48.428 25.8216 49.3699 26.0818 49.3699C26.3084 49.3699 26.4983 48.7937 26.6083 47.7732C27.1834 42.4328 27.4014 40.9672 27.8984 39.1047C29.1119 34.5562 30.4054 32.9523 34.4435 30.9891C39.7137 28.4266 40.2999 27.2309 40.4765 18.6823C40.5395 15.6294 40.6786 12.7884 40.7858 12.3683C41.0535 11.3197 40.655 11.3766 38.1392 12.7462ZM16.1095 26.5072C16.0076 26.6088 15.9243 26.5255 15.9243 26.322C15.9243 26.1184 16.0076 26.0351 16.1095 26.1368C16.2112 26.2387 16.2112 26.4053 16.1095 26.5072Z"
        fill="url(#paint1_linear_360_1723)" />
    <path
        d="M24.5569 43.3085C24.9468 43.3085 25.2731 43.1631 25.6343 43.0349C25.8921 42.9434 26.1393 42.8021 26.4171 42.7863C26.6019 42.7757 26.8493 42.7769 27.0091 42.681C27.1248 42.6116 27.302 42.4984 27.4274 42.4613C27.5259 42.4322 27.6207 42.346 27.7247 42.3377C27.7841 42.3329 27.8719 42.2797 27.9247 42.3324C27.9649 42.3726 28.005 42.4924 27.9615 42.5455C27.7748 42.7737 27.3581 42.8065 27.0906 42.8363C26.9585 42.8509 26.8468 42.9297 26.7131 42.9297C26.5806 42.9297 26.4602 42.977 26.321 42.977C26.1849 42.977 26.0609 42.9458 25.9277 42.931C25.7861 42.9153 25.6636 42.919 25.5278 42.8705C25.328 42.7991 25.1316 42.8113 24.9226 42.8113C24.8062 42.8113 24.4385 42.7006 24.4385 42.906C24.4385 43.1548 24.5606 43.2812 24.8095 43.3138C25.1008 43.352 25.3837 43.3085 25.6751 43.3085C26.0171 43.3085 26.3757 43.3054 26.717 43.2796C27.0926 43.2512 27.5056 43.2599 27.8668 43.1533C27.9537 43.1277 28.1665 43.0205 28.1562 43.1717C28.1397 43.4146 27.8933 43.4373 27.7142 43.4875C27.509 43.5449 27.3194 43.5927 27.1025 43.5927C26.8165 43.5927 26.5358 43.5453 26.25 43.5453C26.04 43.5453 25.8299 43.5453 25.6199 43.5453C25.3495 43.5453 25.0756 43.6544 24.8266 43.7098C24.7651 43.7234 24.6298 43.8026 24.5951 43.865C24.5443 43.9563 25.0098 43.9953 25.0818 43.9953C25.6368 43.9953 26.1733 43.7846 26.7196 43.7164C26.8889 43.6952 27.3249 43.8031 27.3879 43.569C27.4732 43.2524 26.677 43.2138 26.5105 43.2138C26.3601 43.2138 26.1938 43.191 26.0487 43.2375C25.941 43.272 25.8552 43.2849 25.7422 43.2849C25.4031 43.2849 25.075 43.3796 24.7345 43.3796C24.4974 43.3796 24.3736 43.3342 24.2727 43.1007C24.1925 42.9149 24.0438 42.7373 23.9228 42.5745C23.7946 42.4018 23.61 42.2346 23.4255 42.1193C23.2921 42.0359 23.1572 41.9577 23.0217 41.8772C22.9597 41.8404 22.9086 41.7924 22.852 41.7483C22.6909 41.6231 22.4475 41.5636 22.2573 41.5036C21.999 41.4222 21.6956 41.406 21.4338 41.4865C21.2988 41.5281 21.1707 41.5487 21.1707 41.7036C21.1707 42.044 21.602 42.2389 21.839 42.414C22.0049 42.5365 22.1519 42.6857 22.3192 42.8086C22.5711 42.9937 22.8546 43.1224 23.1493 43.2217C23.4853 43.335 23.9882 43.3679 24.3004 43.1533C24.473 43.0346 24.5117 42.8606 24.428 42.6574C24.3968 42.5817 24.3846 42.4562 24.3727 42.3745C24.3438 42.1748 24.2875 41.9733 24.2741 41.772C24.2562 41.5042 24.1442 41.2086 23.9162 41.0471C23.6748 40.8761 23.4395 40.8553 23.1624 40.7761C22.8911 40.6986 22.7411 40.7981 22.7125 41.0905C22.7006 41.2129 22.6902 41.3757 22.7336 41.4931C22.7687 41.5881 22.826 41.6757 22.8559 41.772C23.0301 42.332 23.3529 42.8384 23.7755 43.2375C23.8853 43.3412 23.9954 43.4082 24.1438 43.4454C24.2137 43.4628 24.4346 43.4447 24.2307 43.5348C23.7882 43.7303 23.5077 44.1194 23.315 44.5583C23.2577 44.6889 23.1893 44.8258 23.1506 44.9635C23.1194 45.0743 23.1307 45.1932 23.1019 45.3029C23.0781 45.3938 23.0634 45.63 22.9704 45.6765"
        stroke="#845A27" stroke-width="0.349293" stroke-linecap="round" />
    <path
        d="M24.2964 43.5216C24.2964 43.9454 24.2254 44.3546 24.2254 44.7767C24.2254 45.062 24.4385 45.3024 24.4385 45.5818"
        stroke="#845A27" stroke-width="0.349293" stroke-linecap="round" />
    <path d="M24.2964 43.5217C24.4047 43.5153 24.4769 43.4159 24.5569 43.3559" stroke="#845A27"
        stroke-width="0.349293" stroke-linecap="round" />
</svg>
