<svg width="12" height="12" viewBox="0 0 12 12" fill="none" xmlns="http://www.w3.org/2000/svg">
<path d="M4.33594 5.85002C4.72182 6.6469 5.36619 7.28961 6.16406 7.67345C6.22292 7.70132 6.28801 7.71338 6.35294 7.70845C6.41788 7.70352 6.4804 7.68176 6.53437 7.64533L7.70625 6.86251C7.75802 6.8274 7.81785 6.80597 7.88015 6.80023C7.94245 6.7945 8.00518 6.80463 8.0625 6.8297L10.2562 7.77189C10.3312 7.8031 10.3939 7.85808 10.4345 7.92838C10.4752 7.99869 10.4916 8.0804 10.4812 8.16095C10.4117 8.70364 10.1468 9.2024 9.73614 9.56391C9.32546 9.92541 8.79713 10.1249 8.25 10.125C6.55924 10.125 4.93774 9.45336 3.74219 8.25782C2.54665 7.06228 1.875 5.44077 1.875 3.75002C1.87512 3.20289 2.0746 2.67455 2.43611 2.26387C2.79761 1.85319 3.29637 1.5883 3.83906 1.51877C3.91961 1.50842 4.00133 1.52484 4.07163 1.56549C4.14193 1.60615 4.19692 1.66879 4.22812 1.74377L5.17031 3.9422C5.19481 3.99862 5.20506 4.06019 5.20016 4.1215C5.19525 4.1828 5.17535 4.24197 5.14219 4.29377L4.35937 5.48439C4.32452 5.53824 4.30407 5.60013 4.29997 5.66415C4.29586 5.72816 4.30825 5.79215 4.33594 5.85002V5.85002Z" stroke="#454545" stroke-linecap="round" stroke-linejoin="round"/>
</svg>
