<svg width="64" height="64" viewBox="0 0 64 64" fill="none" xmlns="http://www.w3.org/2000/svg">
<path d="M45 10H52C52.5304 10 53.0391 10.2107 53.4142 10.5858C53.7893 10.9609 54 11.4696 54 12V19" stroke="#090A0A" stroke-width="1.5" stroke-linecap="round" stroke-linejoin="round"/>
<path d="M45 54H52C52.5304 54 53.0391 53.7893 53.4142 53.4142C53.7893 53.0391 54 52.5304 54 52V45" stroke="#090A0A" stroke-width="1.5" stroke-linecap="round" stroke-linejoin="round"/>
<path d="M19 54H12C11.4696 54 10.9609 53.7893 10.5858 53.4142C10.2107 53.0391 10 52.5304 10 52V45" stroke="#090A0A" stroke-width="1.5" stroke-linecap="round" stroke-linejoin="round"/>
<path d="M19 10H12C11.4696 10 10.9609 10.2107 10.5858 10.5858C10.2107 10.9609 10 11.4696 10 12V19" stroke="#090A0A" stroke-width="1.5" stroke-linecap="round" stroke-linejoin="round"/>
<path d="M24.1578 39.2323C18.1578 29.2323 26.1578 19.2323 43.1578 20.2323C44.1578 37.2323 34.1578 45.2323 24.1578 39.2323Z" fill="#34A853" stroke="#090A0A" stroke-width="1.5" stroke-linecap="round" stroke-linejoin="round"/>
<path d="M36.1577 27.2323L21.1577 42.2323" stroke="#090A0A" stroke-width="1.5" stroke-linecap="round" stroke-linejoin="round"/>
</svg>
