<svg width="38" height="50" viewBox="0 0 38 50" fill="none" xmlns="http://www.w3.org/2000/svg">
<path d="M0 13.1929V27.7165V46C0 47.1046 0.89543 48 2 48H35.7953C36.8998 48 37.7953 47.1046 37.7953 46V13.1851C37.7953 12.5053 37.45 11.872 36.8785 11.5038L20.0997 0.693286C19.4437 0.270669 18.6019 0.268121 17.9434 0.68676L0.926972 11.5052C0.349662 11.8722 0 12.5088 0 13.1929Z" fill="#5F9AB0"/>
<path d="M26.5355 38.4921H20.6457C19.8173 38.4921 19.1457 37.8205 19.1457 36.9921V31.3543C19.1457 30.5259 19.8173 29.8543 20.6457 29.8543H26.5355C27.3639 29.8543 28.0355 30.5259 28.0355 31.3543V36.9921C28.0355 37.8205 27.3639 38.4921 26.5355 38.4921Z" fill="#D9984A" stroke="#845A27"/>
<path d="M23.7637 47.437H17.8739C17.0455 47.437 16.3739 46.7654 16.3739 45.937V40.2992C16.3739 39.4708 17.0455 38.7992 17.8739 38.7992H23.7637C24.5921 38.7992 25.2637 39.4708 25.2637 40.2992V45.937C25.2637 46.7654 24.5921 47.437 23.7637 47.437Z" fill="#D9984A" stroke="#845A27"/>
<path d="M8.04712 20.0117H29.8739C30.7023 20.0117 31.3739 20.6833 31.3739 21.5117V47.9999C31.3739 48.8283 30.7023 49.4999 29.8739 49.4999H8.04712C7.21869 49.4999 6.54712 48.8283 6.54712 47.9999V21.5117C6.54712 20.6833 7.21869 20.0117 8.04712 20.0117Z" stroke="#EBF5FF"/>
<path d="M29.8739 26.5708H8.42505C7.59662 26.5708 6.92505 25.8992 6.92505 25.0708V21.5117C6.92505 20.6833 7.59662 20.0117 8.42505 20.0117H29.8739C30.7023 20.0117 31.3739 20.6833 31.3739 21.5117V25.0708C31.3739 25.8992 30.7023 26.5708 29.8739 26.5708Z" fill="#26304B" stroke="#EBF5FF"/>
<path d="M22.4172 30.6103H24.7636C25.0398 30.6103 25.2636 30.8341 25.2636 31.1103V33.0788C25.2636 33.3549 25.0398 33.5788 24.7636 33.5788H22.4172C22.141 33.5788 21.9172 33.3549 21.9172 33.0788V31.1103C21.9172 30.8341 22.141 30.6103 22.4172 30.6103Z" fill="#E8B972" stroke="#845A27"/>
<path d="M19.6457 39.5551H21.9921C22.2683 39.5551 22.4921 39.7789 22.4921 40.0551V42.0236C22.4921 42.2997 22.2683 42.5236 21.9921 42.5236H19.6457C19.3695 42.5236 19.1457 42.2997 19.1457 42.0236V40.0551C19.1457 39.7789 19.3695 39.5551 19.6457 39.5551Z" fill="#E8B972" stroke="#845A27"/>
</svg>
