<svg width="68" height="50" viewBox="0 0 68 50" fill="none" xmlns="http://www.w3.org/2000/svg">
    <defs>
        <filter id="filter0_bd_621_3489" x="0.771238" y="10.6978" width="60.8641" height="39.1232"
            filterUnits="userSpaceOnUse" color-interpolation-filters="sRGB">
            <feFlood flood-opacity="0" result="BackgroundImageFix" />
            <feGaussianBlur in="BackgroundImageFix" stdDeviation="0.949667" />
            <feComposite in2="SourceAlpha" operator="in" result="effect1_backgroundBlur_621_3489" />
            <feColorMatrix in="SourceAlpha" type="matrix"
                values="0 0 0 0 0 0 0 0 0 0 0 0 0 0 0 0 0 0 127 0" result="hardAlpha" />
            <feOffset dy="0.759734" />
            <feGaussianBlur stdDeviation="1.4245" />
            <feComposite in2="hardAlpha" operator="out" />
            <feColorMatrix type="matrix" values="0 0 0 0 0 0 0 0 0 0 0 0 0 0 0 0 0 0 0.1 0" />
            <feBlend mode="normal" in2="effect1_backgroundBlur_621_3489"
                result="effect2_dropShadow_621_3489" />
            <feBlend mode="normal" in="SourceGraphic" in2="effect2_dropShadow_621_3489"
                result="shape" />
        </filter>
        <linearGradient id="paint0_linear_621_3489" x1="54.7535" y1="9.48626" x2="43.9604"
            y2="31.6633" gradientUnits="userSpaceOnUse">
            <stop offset="0.182844" stop-color="#FFE600" />
            <stop offset="0.980542" stop-color="#F09000" />
        </linearGradient>
        <linearGradient id="paint1_linear_621_3489" x1="41.9904" y1="5.068" x2="58.7356"
            y2="45.2892" gradientUnits="userSpaceOnUse">
            <stop stop-color="#FFE600" />
            <stop offset="1" stop-color="#9C8D00" />
        </linearGradient>
        <linearGradient id="paint2_linear_621_3489" x1="62.3981" y1="5.23929" x2="33.4126"
            y2="39.215" gradientUnits="userSpaceOnUse">
            <stop stop-color="#FFE600" />
            <stop offset="1" stop-color="#AA9900" />
        </linearGradient>
        <linearGradient id="paint3_linear_621_3489" x1="20.9102" y1="13.0307" x2="33.9971"
            y2="45.9686" gradientUnits="userSpaceOnUse">
            <stop stop-color="white" />
            <stop offset="0.708333" stop-color="#3981EE" />
        </linearGradient>
        <linearGradient id="paint4_linear_621_3489" x1="29.4387" y1="1.85535" x2="47.5252"
            y2="59.2026" gradientUnits="userSpaceOnUse">
            <stop stop-color="#92BDFF" />
            <stop offset="0.713542" stop-color="#115DA9" />
        </linearGradient>
    </defs>
    <circle cx="48.0646" cy="19.679" r="12.0814" fill="url(#paint0_linear_621_3489)"
        stroke="url(#paint1_linear_621_3489)" stroke-width="0.379867" />
    <path fill-rule="evenodd" clip-rule="evenodd"
        d="M48.0646 0.142944C47.4782 0.142944 47.0028 0.618302 47.0028 1.20468V4.60225C47.0028 5.18863 47.4782 5.66399 48.0646 5.66399C48.651 5.66399 49.1263 5.18863 49.1263 4.60225V1.20468C49.1263 0.618301 48.651 0.142944 48.0646 0.142944ZM48.0646 33.6939C47.4782 33.6939 47.0028 34.1693 47.0028 34.7557V38.1532C47.0028 38.7396 47.4782 39.215 48.0646 39.215C48.651 39.215 49.1263 38.7396 49.1263 38.1532V34.7557C49.1263 34.1693 48.651 33.6939 48.0646 33.6939ZM56.3822 3.14889C56.6754 2.64107 57.3248 2.46707 57.8326 2.76026C58.3404 3.05346 58.5144 3.70281 58.2212 4.21063L56.5224 7.15301C56.2292 7.66083 55.5799 7.83482 55.0721 7.54163C54.5643 7.24844 54.3903 6.59909 54.6835 6.09127L56.3822 3.14889ZM41.0571 31.8163C40.5493 31.5231 39.9 31.6971 39.6068 32.2049L37.908 35.1473C37.6148 35.6551 37.7888 36.3045 38.2966 36.5977C38.8044 36.8909 39.4538 36.7169 39.747 36.209L41.4458 33.2667C41.7389 32.7588 41.565 32.1095 41.0571 31.8163ZM63.5329 9.52232C64.0407 9.22913 64.6901 9.40312 64.9833 9.91094C65.2765 10.4188 65.1025 11.0681 64.5947 11.3613L61.6523 13.0601C61.1445 13.3533 60.4951 13.1793 60.2019 12.6715C59.9087 12.1636 60.0827 11.5143 60.5905 11.2211L63.5329 9.52232ZM35.9273 26.6864C35.6341 26.1786 34.9847 26.0046 34.4769 26.2978L31.5345 27.9966C31.0267 28.2898 30.8527 28.9391 31.1459 29.447C31.4391 29.9548 32.0885 30.1288 32.5963 29.8356L35.5387 28.1368C36.0465 27.8436 36.2205 27.1943 35.9273 26.6864ZM66.5389 18.6172C67.1253 18.6172 67.6006 19.0926 67.6006 19.6789C67.6006 20.2653 67.1253 20.7407 66.5389 20.7407H63.1413C62.5549 20.7407 62.0796 20.2653 62.0796 19.6789C62.0796 19.0926 62.5549 18.6172 63.1413 18.6172H66.5389ZM34.0496 19.679C34.0496 19.0926 33.5743 18.6172 32.9879 18.6172H29.5903C29.004 18.6172 28.5286 19.0926 28.5286 19.679C28.5286 20.2653 29.004 20.7407 29.5903 20.7407H32.9879C33.5743 20.7407 34.0496 20.2653 34.0496 19.679ZM64.5947 27.9966C65.1025 28.2898 65.2765 28.9391 64.9833 29.447C64.6901 29.9548 64.0407 30.1288 63.5329 29.8356L60.5905 28.1368C60.0827 27.8436 59.9087 27.1943 60.2019 26.6864C60.4951 26.1786 61.1445 26.0046 61.6523 26.2978L64.5947 27.9966ZM35.9273 12.6715C36.2205 12.1636 36.0465 11.5143 35.5387 11.2211L32.5963 9.5223C32.0885 9.22911 31.4391 9.40311 31.1459 9.91093C30.8527 10.4187 31.0267 11.0681 31.5345 11.3613L34.4769 13.0601C34.9847 13.3533 35.6341 13.1793 35.9273 12.6715ZM58.2212 35.1473C58.5144 35.6551 58.3404 36.3044 57.8326 36.5976C57.3248 36.8908 56.6754 36.7168 56.3822 36.209L54.6835 33.2666C54.3903 32.7588 54.5643 32.1095 55.0721 31.8163C55.5799 31.5231 56.2293 31.6971 56.5224 32.2049L58.2212 35.1473ZM41.0571 7.54162C41.5649 7.24843 41.7389 6.59908 41.4457 6.09125L39.7469 3.14887C39.4537 2.64105 38.8044 2.46706 38.2966 2.76025C37.7888 3.05344 37.6148 3.70279 37.908 4.21061L39.6067 7.15299C39.8999 7.66082 40.5493 7.83481 41.0571 7.54162Z"
        fill="url(#paint2_linear_621_3489)" />
    <g filter="url(#filter0_bd_621_3489)">
        <mask id="path-3-outside-1_621_3489" maskUnits="userSpaceOnUse" x="3.00009" y="12.1669"
            width="56" height="35" fill="black">
            <rect fill="white" x="3.00009" y="12.1669" width="56" height="35" />
            <path fill-rule="evenodd" clip-rule="evenodd"
                d="M43.2635 28.1476C43.2635 28.6705 43.2367 29.1872 43.1844 29.6964C44.7984 28.2937 46.9063 27.4445 49.2125 27.4445C54.2902 27.4445 58.4065 31.5608 58.4065 36.6385C58.4065 41.7161 54.2902 45.8324 49.2125 45.8324L13.473 45.8324C13.4701 45.8324 13.4673 45.8324 13.4644 45.8324C13.4616 45.8324 13.4587 45.8324 13.4558 45.8324H13.4103V45.8322C8.20822 45.8031 4.00009 41.577 4.00009 36.3681C4.00009 31.1782 8.17734 26.9641 13.353 26.9044C13.9849 19.2124 20.4279 13.1669 28.2828 13.1669C36.5564 13.1669 43.2635 19.874 43.2635 28.1476Z" />
        </mask>
        <path fill-rule="evenodd" clip-rule="evenodd"
            d="M43.2635 28.1476C43.2635 28.6705 43.2367 29.1872 43.1844 29.6964C44.7984 28.2937 46.9063 27.4445 49.2125 27.4445C54.2902 27.4445 58.4065 31.5608 58.4065 36.6385C58.4065 41.7161 54.2902 45.8324 49.2125 45.8324L13.473 45.8324C13.4701 45.8324 13.4673 45.8324 13.4644 45.8324C13.4616 45.8324 13.4587 45.8324 13.4558 45.8324H13.4103V45.8322C8.20822 45.8031 4.00009 41.577 4.00009 36.3681C4.00009 31.1782 8.17734 26.9641 13.353 26.9044C13.9849 19.2124 20.4279 13.1669 28.2828 13.1669C36.5564 13.1669 43.2635 19.874 43.2635 28.1476Z"
            fill="url(#paint3_linear_621_3489)" />
        <path
            d="M43.1844 29.6964L42.8066 29.6575L42.7084 30.6134L43.4336 29.9831L43.1844 29.6964ZM49.2125 45.8324V45.4525V45.8324ZM13.473 45.8324V46.2122V45.8324ZM13.4103 45.8324H13.0305V46.2122H13.4103V45.8324ZM13.4103 45.8322H13.7902V45.4545L13.4125 45.4524L13.4103 45.8322ZM13.353 26.9044L13.3574 27.2842L13.7033 27.2802L13.7316 26.9355L13.353 26.9044ZM43.5623 29.7352C43.6159 29.2132 43.6434 28.6835 43.6434 28.1476H42.8837C42.8837 28.6576 42.8575 29.1613 42.8066 29.6575L43.5623 29.7352ZM49.2125 27.0647C46.8113 27.0647 44.6157 27.9492 42.9353 29.4096L43.4336 29.9831C44.9811 28.6382 47.0013 27.8244 49.2125 27.8244V27.0647ZM58.7863 36.6385C58.7863 31.351 54.5 27.0647 49.2125 27.0647V27.8244C54.0804 27.8244 58.0266 31.7706 58.0266 36.6385H58.7863ZM49.2125 46.2122C54.5 46.2122 58.7863 41.9259 58.7863 36.6385H58.0266C58.0266 41.5063 54.0804 45.4525 49.2125 45.4525V46.2122ZM49.2125 45.4525L13.473 45.4525V46.2122L49.2125 46.2122V45.4525ZM13.4644 46.2122C13.466 46.2122 13.4676 46.2122 13.469 46.2122C13.4704 46.2122 13.4717 46.2122 13.473 46.2122V45.4525C13.4714 45.4525 13.4699 45.4525 13.4685 45.4525C13.467 45.4525 13.4657 45.4525 13.4644 45.4525V46.2122ZM13.4558 46.2122C13.4571 46.2122 13.4584 46.2122 13.4599 46.2122C13.4613 46.2122 13.4628 46.2122 13.4644 46.2122V45.4525C13.4631 45.4525 13.4618 45.4525 13.4604 45.4525C13.459 45.4525 13.4574 45.4525 13.4558 45.4525V46.2122ZM13.4558 45.4525H13.4103V46.2122H13.4558V45.4525ZM13.7902 45.8324V45.8322H13.0305V45.8324H13.7902ZM3.62022 36.3681C3.62022 41.7861 7.99725 46.1818 13.4082 46.2121L13.4125 45.4524C8.41919 45.4244 4.37996 41.3679 4.37996 36.3681H3.62022ZM13.3486 26.5245C7.96513 26.5866 3.62022 30.9699 3.62022 36.3681H4.37996C4.37996 31.3866 8.38956 27.3415 13.3574 27.2842L13.3486 26.5245ZM28.2828 12.7871C20.2285 12.7871 13.6224 18.9859 12.9744 26.8733L13.7316 26.9355C14.3475 19.439 20.6273 13.5468 28.2828 13.5468V12.7871ZM43.6434 28.1476C43.6434 19.6642 36.7662 12.7871 28.2828 12.7871V13.5468C36.3467 13.5468 42.8837 20.0838 42.8837 28.1476H43.6434Z"
            fill="url(#paint4_linear_621_3489)" mask="url(#path-3-outside-1_621_3489)" />
    </g>
</svg>
