<svg width="67" height="55" viewBox="0 0 67 55" fill="none" xmlns="http://www.w3.org/2000/svg">
<path fill-rule="evenodd" clip-rule="evenodd" d="M47.3763 2.42341C47.3763 1.21929 48.3525 0.243164 49.5566 0.243164C55.0157 0.243164 59.4315 4.67863 59.4315 10.1381C59.4315 15.5976 55.0157 20.0331 49.5566 20.0331H18.1746C16.9705 20.0331 15.9944 19.0569 15.9944 17.8528C15.9944 16.6487 16.9705 15.6726 18.1746 15.6726H49.5566C52.5968 15.6726 55.071 13.2001 55.071 10.1381C55.071 7.07616 52.5968 4.60365 49.5566 4.60365C48.3525 4.60365 47.3763 3.62752 47.3763 2.42341ZM0.732666 27.58C0.732666 26.3759 1.70879 25.3998 2.91291 25.3998L45.8469 25.3998C47.051 25.3998 48.0272 26.3759 48.0272 27.5801C48.0272 28.7842 47.051 29.7603 45.8469 29.7603L2.91291 29.7603C1.70879 29.7603 0.732666 28.7842 0.732666 27.58ZM50.7105 27.58C50.7105 26.3759 51.6867 25.3998 52.8908 25.3998H62.2826C63.4867 25.3998 64.4628 26.3759 64.4628 27.58C64.4628 28.7842 63.4867 29.7603 62.2826 29.7603H52.8908C51.6867 29.7603 50.7105 28.7842 50.7105 27.58ZM4.08688 36.9719C4.08688 35.7677 5.06301 34.7916 6.26713 34.7916H15.6589C16.8631 34.7916 17.8392 35.7677 17.8392 36.9719C17.8392 38.176 16.8631 39.1521 15.6589 39.1521H6.26713C5.06301 39.1521 4.08688 38.176 4.08688 36.9719ZM20.858 36.9719C20.858 35.7677 21.8341 34.7916 23.0382 34.7916H56.944C62.4007 34.7916 66.8108 39.2293 66.8108 44.6866C66.8108 50.1439 62.4007 54.5815 56.944 54.5815C55.7398 54.5815 54.7637 53.6054 54.7637 52.4013C54.7637 51.1972 55.7398 50.221 56.944 50.221C59.9775 50.221 62.4503 47.7507 62.4503 44.6866C62.4503 41.6225 59.9775 39.1521 56.944 39.1521H23.0382C21.8341 39.1521 20.858 38.176 20.858 36.9719Z" fill="url(#paint0_linear_520_1977)"/>
<defs>
<linearGradient id="paint0_linear_520_1977" x1="58.1843" y1="4.72608" x2="19.7474" y2="50.3272" gradientUnits="userSpaceOnUse">
<stop stop-color="#D6E9FF"/>
<stop offset="1" stop-color="#2898FF"/>
</linearGradient>
</defs>
</svg>
